<?xml version="1.0" encoding="UTF-8" standalone="no"?>
<!DOCTYPE svg PUBLIC "-//W3C//DTD SVG 1.1//EN"
 "http://www.w3.org/Graphics/SVG/1.1/DTD/svg11.dtd">
<!-- Generated by graphviz version 2.40.1 (20161225.0304)
 -->
<!-- Pages: 1 -->
<svg width="484pt" height="260pt"
 viewBox="0.00 0.00 484.05 260.00" xmlns="http://www.w3.org/2000/svg" xmlns:xlink="http://www.w3.org/1999/xlink">
<g id="graph0" class="graph" transform="scale(1 1) rotate(0) translate(4 256)">
<polygon fill="#ffffff" stroke="transparent" points="-4,4 -4,-256 480.0523,-256 480.0523,4 -4,4"/>
<!-- 10.4.0.3 -->
<g id="node1" class="node">
<title>10.4.0.3</title>
<g id="a_node1"><a xlink:title="10.4.0.3">
<ellipse fill="none" stroke="#000000" cx="81.1167" cy="-234" rx="42.3433" ry="18"/>
<text text-anchor="middle" x="81.1167" y="-229.8" font-family="Times,serif" font-size="14.00" fill="#000000">10.4.0.3</text>
</a>
</g>
</g>
<!-- 10.4.0.146 -->
<g id="node2" class="node">
<title>10.4.0.146</title>
<g id="a_node2"><a xlink:title="10.4.0.146">
<ellipse fill="none" stroke="#000000" cx="81.1167" cy="-162" rx="62.5334" ry="18"/>
<text text-anchor="middle" x="81.1167" y="-157.8" font-family="Times,serif" font-size="14.00" fill="#000000">otel&#45;collector</text>
</a>
</g>
</g>
<!-- 10.4.0.3&#45;&gt;10.4.0.146 -->
<g id="edge1" class="edge">
<title>10.4.0.3&#45;&gt;10.4.0.146</title>
<path fill="none" stroke="#000000" d="M81.1167,-215.8314C81.1167,-208.131 81.1167,-198.9743 81.1167,-190.4166"/>
<polygon fill="#000000" stroke="#000000" points="84.6168,-190.4132 81.1167,-180.4133 77.6168,-190.4133 84.6168,-190.4132"/>
</g>
<!-- 10.4.2.75 -->
<g id="node3" class="node">
<title>10.4.2.75</title>
<g id="a_node3"><a xlink:title="10.4.2.75">
<ellipse fill="none" stroke="#000000" cx="233.1167" cy="-234" rx="58.5328" ry="18"/>
<text text-anchor="middle" x="233.1167" y="-229.8" font-family="Times,serif" font-size="14.00" fill="#000000">oha&#45;loadgen</text>
</a>
</g>
</g>
<!-- 10.4.1.139 -->
<g id="node4" class="node">
<title>10.4.1.139</title>
<g id="a_node4"><a xlink:title="10.4.1.139">
<ellipse fill="none" stroke="#000000" cx="233.1167" cy="-162" rx="71.7757" ry="18"/>
<text text-anchor="middle" x="233.1167" y="-157.8" font-family="Times,serif" font-size="14.00" fill="#000000">productpage&#45;v1</text>
</a>
</g>
</g>
<!-- 10.4.2.75&#45;&gt;10.4.1.139 -->
<g id="edge2" class="edge">
<title>10.4.2.75&#45;&gt;10.4.1.139</title>
<path fill="none" stroke="#000000" d="M233.1167,-215.8314C233.1167,-208.131 233.1167,-198.9743 233.1167,-190.4166"/>
<polygon fill="#000000" stroke="#000000" points="236.6168,-190.4132 233.1167,-180.4133 229.6168,-190.4133 236.6168,-190.4132"/>
</g>
<!-- 10.4.1.237 -->
<g id="node5" class="node">
<title>10.4.1.237</title>
<g id="a_node5"><a xlink:title="10.4.1.237">
<ellipse fill="none" stroke="#000000" cx="296.1167" cy="-90" rx="53.8712" ry="18"/>
<text text-anchor="middle" x="296.1167" y="-85.8" font-family="Times,serif" font-size="14.00" fill="#000000">reviews&#45;v2</text>
</a>
</g>
</g>
<!-- 10.4.1.139&#45;&gt;10.4.1.237 -->
<g id="edge9" class="edge">
<title>10.4.1.139&#45;&gt;10.4.1.237</title>
<path fill="none" stroke="#000000" d="M248.6898,-144.2022C256.3759,-135.4182 265.7787,-124.672 274.1793,-115.0714"/>
<polygon fill="#000000" stroke="#000000" points="276.9892,-117.1752 280.9402,-107.3446 271.7211,-112.5656 276.9892,-117.1752"/>
</g>
<!-- 10.4.1.138 -->
<g id="node8" class="node">
<title>10.4.1.138</title>
<g id="a_node8"><a xlink:title="10.4.1.138">
<ellipse fill="none" stroke="#000000" cx="422.1167" cy="-90" rx="53.8712" ry="18"/>
<text text-anchor="middle" x="422.1167" y="-85.8" font-family="Times,serif" font-size="14.00" fill="#000000">reviews&#45;v3</text>
</a>
</g>
</g>
<!-- 10.4.1.139&#45;&gt;10.4.1.138 -->
<g id="edge10" class="edge">
<title>10.4.1.139&#45;&gt;10.4.1.138</title>
<path fill="none" stroke="#000000" d="M272.7373,-146.9064C303.1471,-135.3218 345.1597,-119.317 376.8864,-107.2306"/>
<polygon fill="#000000" stroke="#000000" points="378.2792,-110.4454 386.3781,-103.6147 375.7872,-103.904 378.2792,-110.4454"/>
</g>
<!-- 10.4.2.73 -->
<g id="node12" class="node">
<title>10.4.2.73</title>
<g id="a_node12"><a xlink:title="10.4.2.73">
<ellipse fill="none" stroke="#000000" cx="49.1167" cy="-90" rx="49.2338" ry="18"/>
<text text-anchor="middle" x="49.1167" y="-85.8" font-family="Times,serif" font-size="14.00" fill="#000000">details&#45;v1</text>
</a>
</g>
</g>
<!-- 10.4.1.139&#45;&gt;10.4.2.73 -->
<g id="edge7" class="edge">
<title>10.4.1.139&#45;&gt;10.4.2.73</title>
<path fill="none" stroke="#000000" d="M194.0951,-146.7307C164.3008,-135.072 123.2613,-119.0131 92.4491,-106.9561"/>
<polygon fill="#000000" stroke="#000000" points="93.4196,-103.5775 82.8317,-103.1928 90.8687,-110.0962 93.4196,-103.5775"/>
</g>
<!-- 10.4.1.137 -->
<g id="node13" class="node">
<title>10.4.1.137</title>
<g id="a_node13"><a xlink:title="10.4.1.137">
<ellipse fill="none" stroke="#000000" cx="170.1167" cy="-90" rx="53.8712" ry="18"/>
<text text-anchor="middle" x="170.1167" y="-85.8" font-family="Times,serif" font-size="14.00" fill="#000000">reviews&#45;v1</text>
</a>
</g>
</g>
<!-- 10.4.1.139&#45;&gt;10.4.1.137 -->
<g id="edge8" class="edge">
<title>10.4.1.139&#45;&gt;10.4.1.137</title>
<path fill="none" stroke="#000000" d="M217.5437,-144.2022C209.8576,-135.4182 200.4547,-124.672 192.0542,-115.0714"/>
<polygon fill="#000000" stroke="#000000" points="194.5124,-112.5656 185.2932,-107.3446 189.2443,-117.1752 194.5124,-112.5656"/>
</g>
<!-- 10.4.2.118 -->
<g id="node6" class="node">
<title>10.4.2.118</title>
<g id="a_node6"><a xlink:title="10.4.2.118">
<ellipse fill="none" stroke="#000000" cx="182.1167" cy="-18" rx="50.38" ry="18"/>
<text text-anchor="middle" x="182.1167" y="-13.8" font-family="Times,serif" font-size="14.00" fill="#000000">ratings&#45;v1</text>
</a>
</g>
</g>
<!-- 10.4.1.237&#45;&gt;10.4.2.118 -->
<g id="edge3" class="edge">
<title>10.4.1.237&#45;&gt;10.4.2.118</title>
<path fill="none" stroke="#000000" d="M270.8164,-74.0209C254.6172,-63.7898 233.4094,-50.3954 215.7933,-39.2694"/>
<polygon fill="#000000" stroke="#000000" points="217.278,-36.0675 206.9541,-33.6867 213.54,-41.9859 217.278,-36.0675"/>
</g>
<!-- 10.4.0.98 -->
<g id="node7" class="node">
<title>10.4.0.98</title>
<g id="a_node7"><a xlink:title="10.4.0.98">
<ellipse fill="none" stroke="#000000" cx="300.1167" cy="-18" rx="50.38" ry="18"/>
<text text-anchor="middle" x="300.1167" y="-13.8" font-family="Times,serif" font-size="14.00" fill="#000000">ratings&#45;v1</text>
</a>
</g>
</g>
<!-- 10.4.1.237&#45;&gt;10.4.0.98 -->
<g id="edge4" class="edge">
<title>10.4.1.237&#45;&gt;10.4.0.98</title>
<path fill="none" stroke="#000000" d="M297.1261,-71.8314C297.5539,-64.131 298.0626,-54.9743 298.538,-46.4166"/>
<polygon fill="#000000" stroke="#000000" points="302.0336,-46.592 299.0938,-36.4133 295.0444,-46.2037 302.0336,-46.592"/>
</g>
<!-- 10.4.1.238 -->
<g id="node9" class="node">
<title>10.4.1.238</title>
<g id="a_node9"><a xlink:title="10.4.1.238">
<ellipse fill="none" stroke="#000000" cx="422.1167" cy="-18" rx="50.38" ry="18"/>
<text text-anchor="middle" x="422.1167" y="-13.8" font-family="Times,serif" font-size="14.00" fill="#000000">ratings&#45;v1</text>
</a>
</g>
</g>
<!-- 10.4.1.138&#45;&gt;10.4.1.238 -->
<g id="edge5" class="edge">
<title>10.4.1.138&#45;&gt;10.4.1.238</title>
<path fill="none" stroke="#000000" d="M422.1167,-71.8314C422.1167,-64.131 422.1167,-54.9743 422.1167,-46.4166"/>
<polygon fill="#000000" stroke="#000000" points="425.6168,-46.4132 422.1167,-36.4133 418.6168,-46.4133 425.6168,-46.4132"/>
</g>
<!-- 10.4.1.174 -->
<g id="node10" class="node">
<title>10.4.1.174</title>
<g id="a_node10"><a xlink:title="10.4.1.174">
<ellipse fill="none" stroke="#000000" cx="357.1167" cy="-234" rx="32.4788" ry="18"/>
<text text-anchor="middle" x="357.1167" y="-229.8" font-family="Times,serif" font-size="14.00" fill="#000000">client</text>
</a>
</g>
</g>
<!-- 10.4.1.175 -->
<g id="node11" class="node">
<title>10.4.1.175</title>
<g id="a_node11"><a xlink:title="10.4.1.175">
<ellipse fill="none" stroke="#000000" cx="357.1167" cy="-162" rx="34.7476" ry="18"/>
<text text-anchor="middle" x="357.1167" y="-157.8" font-family="Times,serif" font-size="14.00" fill="#000000">server</text>
</a>
</g>
</g>
<!-- 10.4.1.174&#45;&gt;10.4.1.175 -->
<g id="edge6" class="edge">
<title>10.4.1.174&#45;&gt;10.4.1.175</title>
<path fill="none" stroke="#000000" d="M357.1167,-215.8314C357.1167,-208.131 357.1167,-198.9743 357.1167,-190.4166"/>
<polygon fill="#000000" stroke="#000000" points="360.6168,-190.4132 357.1167,-180.4133 353.6168,-190.4133 360.6168,-190.4132"/>
</g>
</g>
</svg>
