<?xml version="1.0" encoding="UTF-8" standalone="no"?>
<!DOCTYPE svg PUBLIC "-//W3C//DTD SVG 1.1//EN"
 "http://www.w3.org/Graphics/SVG/1.1/DTD/svg11.dtd">
<!-- Generated by graphviz version 2.40.1 (20161225.0304)
 -->
<!-- Pages: 1 -->
<svg width="2985pt" height="260pt"
 viewBox="0.00 0.00 2984.55 260.00" xmlns="http://www.w3.org/2000/svg" xmlns:xlink="http://www.w3.org/1999/xlink">
<g id="graph0" class="graph" transform="scale(1 1) rotate(0) translate(4 256)">
<polygon fill="#ffffff" stroke="transparent" points="-4,4 -4,-256 2980.5457,-256 2980.5457,4 -4,4"/>
<!-- 10.4.2.75 -->
<g id="node1" class="node">
<title>10.4.2.75</title>
<ellipse fill="none" stroke="#000000" cx="750.4152" cy="-234" rx="181.6679" ry="18"/>
<text text-anchor="middle" x="750.4152" y="-229.8" font-family="Times,serif" font-size="14.00" fill="#000000">oha&#45;loadgen&#45;84c68dbfbc&#45;dwhck (10.4.2.75)</text>
</g>
<!-- 10.4.1.139 -->
<g id="node2" class="node">
<title>10.4.1.139</title>
<ellipse fill="none" stroke="#000000" cx="750.4152" cy="-162" rx="194.4539" ry="18"/>
<text text-anchor="middle" x="750.4152" y="-157.8" font-family="Times,serif" font-size="14.00" fill="#000000">productpage&#45;v1&#45;564d4686f&#45;2jvmx (10.4.1.139)</text>
</g>
<!-- 10.4.2.75&#45;&gt;10.4.1.139 -->
<g id="edge1" class="edge">
<title>10.4.2.75&#45;&gt;10.4.1.139</title>
<path fill="none" stroke="#000000" d="M750.4152,-215.8314C750.4152,-208.131 750.4152,-198.9743 750.4152,-190.4166"/>
<polygon fill="#000000" stroke="#000000" points="753.9153,-190.4132 750.4152,-180.4133 746.9153,-190.4133 753.9153,-190.4132"/>
</g>
<!-- 10.4.0.99 -->
<g id="node3" class="node">
<title>10.4.0.99</title>
<ellipse fill="none" stroke="#000000" cx="909.4152" cy="-90" rx="167.2145" ry="18"/>
<text text-anchor="middle" x="909.4152" y="-85.8" font-family="Times,serif" font-size="14.00" fill="#000000">reviews&#45;v2&#45;b7dcd98fb&#45;f6j9b (10.4.0.99)</text>
</g>
<!-- 10.4.1.139&#45;&gt;10.4.0.99 -->
<g id="edge9" class="edge">
<title>10.4.1.139&#45;&gt;10.4.0.99</title>
<path fill="none" stroke="#000000" d="M789.7186,-144.2022C811.3799,-134.3933 838.4441,-122.1378 861.3554,-111.7629"/>
<polygon fill="#000000" stroke="#000000" points="862.8982,-114.9065 870.5639,-107.593 860.0106,-108.5298 862.8982,-114.9065"/>
</g>
<!-- 10.4.1.138 -->
<g id="node6" class="node">
<title>10.4.1.138</title>
<ellipse fill="none" stroke="#000000" cx="1274.4152" cy="-90" rx="179.3744" ry="18"/>
<text text-anchor="middle" x="1274.4152" y="-85.8" font-family="Times,serif" font-size="14.00" fill="#000000">reviews&#45;v3&#45;5c5cc7b6d&#45;fmw6k (10.4.1.138)</text>
</g>
<!-- 10.4.1.139&#45;&gt;10.4.1.138 -->
<g id="edge10" class="edge">
<title>10.4.1.139&#45;&gt;10.4.1.138</title>
<path fill="none" stroke="#000000" d="M859.3065,-147.0378C946.6469,-135.0369 1068.9588,-118.2307 1158.1849,-105.9706"/>
<polygon fill="#000000" stroke="#000000" points="1158.9193,-109.4026 1168.3498,-104.5739 1157.9664,-102.4678 1158.9193,-109.4026"/>
</g>
<!-- 10.4.2.73 -->
<g id="node9" class="node">
<title>10.4.2.73</title>
<ellipse fill="none" stroke="#000000" cx="171.4152" cy="-90" rx="171.3304" ry="18"/>
<text text-anchor="middle" x="171.4152" y="-85.8" font-family="Times,serif" font-size="14.00" fill="#000000">details&#45;v1&#45;5f4d584748&#45;4t97w (10.4.2.73)</text>
</g>
<!-- 10.4.1.139&#45;&gt;10.4.2.73 -->
<g id="edge7" class="edge">
<title>10.4.1.139&#45;&gt;10.4.2.73</title>
<path fill="none" stroke="#000000" d="M634.2901,-147.5596C535.1906,-135.2363 393.1797,-117.5769 292.6425,-105.0749"/>
<polygon fill="#000000" stroke="#000000" points="292.7898,-101.5663 282.4343,-103.8055 291.9259,-108.5128 292.7898,-101.5663"/>
</g>
<!-- 10.4.1.137 -->
<g id="node10" class="node">
<title>10.4.1.137</title>
<ellipse fill="none" stroke="#000000" cx="542.4152" cy="-90" rx="181.7066" ry="18"/>
<text text-anchor="middle" x="542.4152" y="-85.8" font-family="Times,serif" font-size="14.00" fill="#000000">reviews&#45;v1&#45;86896b7648&#45;l2fnm (10.4.1.137)</text>
</g>
<!-- 10.4.1.139&#45;&gt;10.4.1.137 -->
<g id="edge8" class="edge">
<title>10.4.1.139&#45;&gt;10.4.1.137</title>
<path fill="none" stroke="#000000" d="M700.0642,-144.5708C670.6635,-134.3937 633.3856,-121.4898 602.4616,-110.7853"/>
<polygon fill="#000000" stroke="#000000" points="603.2573,-107.357 592.6626,-107.3933 600.9675,-113.9719 603.2573,-107.357"/>
</g>
<!-- 10.4.0.98 -->
<g id="node4" class="node">
<title>10.4.0.98</title>
<ellipse fill="none" stroke="#000000" cx="907.4152" cy="-18" rx="171.8714" ry="18"/>
<text text-anchor="middle" x="907.4152" y="-13.8" font-family="Times,serif" font-size="14.00" fill="#000000">ratings&#45;v1&#45;686ccfb5d8&#45;g2fbw (10.4.0.98)</text>
</g>
<!-- 10.4.0.99&#45;&gt;10.4.0.98 -->
<g id="edge2" class="edge">
<title>10.4.0.99&#45;&gt;10.4.0.98</title>
<path fill="none" stroke="#000000" d="M908.9105,-71.8314C908.6966,-64.131 908.4422,-54.9743 908.2045,-46.4166"/>
<polygon fill="#000000" stroke="#000000" points="911.7031,-46.3122 907.9267,-36.4133 904.7058,-46.5066 911.7031,-46.3122"/>
</g>
<!-- 10.8.3.213 -->
<g id="node5" class="node">
<title>10.8.3.213</title>
<ellipse fill="none" stroke="#000000" cx="1276.4152" cy="-18" rx="179.3744" ry="18"/>
<text text-anchor="middle" x="1276.4152" y="-13.8" font-family="Times,serif" font-size="14.00" fill="#000000">reviews&#45;v3&#45;5c5cc7b6d&#45;fmw6k (10.8.3.213)</text>
</g>
<!-- 10.4.0.99&#45;&gt;10.8.3.213 -->
<g id="edge3" class="edge">
<title>10.4.0.99&#45;&gt;10.8.3.213</title>
<path fill="none" stroke="#000000" d="M989.9549,-74.1993C1047.4186,-62.9258 1124.7994,-47.7448 1184.6507,-36.0028"/>
<polygon fill="#000000" stroke="#000000" points="1185.3379,-39.4348 1194.477,-34.0751 1183.9903,-32.5658 1185.3379,-39.4348"/>
</g>
<!-- 10.4.1.138&#45;&gt;10.4.0.98 -->
<g id="edge4" class="edge">
<title>10.4.1.138&#45;&gt;10.4.0.98</title>
<path fill="none" stroke="#000000" d="M1192.51,-73.9314C1134.9955,-62.6479 1058.037,-47.5498 998.5747,-35.8842"/>
<polygon fill="#000000" stroke="#000000" points="998.9244,-32.3861 988.4376,-33.8954 997.5768,-39.2552 998.9244,-32.3861"/>
</g>
<!-- 10.4.1.138&#45;&gt;10.8.3.213 -->
<g id="edge5" class="edge">
<title>10.4.1.138&#45;&gt;10.8.3.213</title>
<path fill="none" stroke="#000000" d="M1274.9199,-71.8314C1275.1338,-64.131 1275.3881,-54.9743 1275.6258,-46.4166"/>
<polygon fill="#000000" stroke="#000000" points="1279.1246,-46.5066 1275.9037,-36.4133 1272.1273,-46.3122 1279.1246,-46.5066"/>
</g>
<!-- 10.4.1.174 -->
<g id="node7" class="node">
<title>10.4.1.174</title>
<ellipse fill="none" stroke="#000000" cx="1213.4152" cy="-234" rx="158.0092" ry="18"/>
<text text-anchor="middle" x="1213.4152" y="-229.8" font-family="Times,serif" font-size="14.00" fill="#000000">client&#45;554d698b56&#45;5gf9f (10.4.1.174)</text>
</g>
<!-- 10.4.1.175 -->
<g id="node8" class="node">
<title>10.4.1.175</title>
<ellipse fill="none" stroke="#000000" cx="1213.4152" cy="-162" rx="152.7418" ry="18"/>
<text text-anchor="middle" x="1213.4152" y="-157.8" font-family="Times,serif" font-size="14.00" fill="#000000">server&#45;68cd8cdf64&#45;lrqjt (10.4.1.175)</text>
</g>
<!-- 10.4.1.174&#45;&gt;10.4.1.175 -->
<g id="edge6" class="edge">
<title>10.4.1.174&#45;&gt;10.4.1.175</title>
<path fill="none" stroke="#000000" d="M1213.4152,-215.8314C1213.4152,-208.131 1213.4152,-198.9743 1213.4152,-190.4166"/>
<polygon fill="#000000" stroke="#000000" points="1216.9153,-190.4132 1213.4152,-180.4133 1209.9153,-190.4133 1216.9153,-190.4132"/>
</g>
<!-- 10.4.1.147 -->
<g id="node11" class="node">
<title>10.4.1.147</title>
<ellipse fill="none" stroke="#000000" cx="1619.4152" cy="-162" rx="186.3365" ry="18"/>
<text text-anchor="middle" x="1619.4152" y="-157.8" font-family="Times,serif" font-size="14.00" fill="#000000">otel&#45;collector&#45;58b46c64f&#45;bn8pw (10.4.1.147)</text>
</g>
<!-- 169.254.169.254 -->
<g id="node12" class="node">
<title>169.254.169.254</title>
<ellipse fill="none" stroke="#000000" cx="1855.4152" cy="-90" rx="213.4926" ry="18"/>
<text text-anchor="middle" x="1855.4152" y="-85.8" font-family="Times,serif" font-size="14.00" fill="#000000">otel&#45;collector&#45;68b9d4cb78&#45;5qkr6 (169.254.169.254)</text>
</g>
<!-- 10.4.1.147&#45;&gt;169.254.169.254 -->
<g id="edge11" class="edge">
<title>10.4.1.147&#45;&gt;169.254.169.254</title>
<path fill="none" stroke="#000000" d="M1675.9431,-144.7542C1709.8466,-134.4107 1753.1434,-121.2015 1788.7163,-110.3488"/>
<polygon fill="#000000" stroke="#000000" points="1789.9872,-113.6204 1798.5306,-107.3546 1787.9445,-106.9251 1789.9872,-113.6204"/>
</g>
<!-- 10.4.1.3 -->
<g id="node13" class="node">
<title>10.4.1.3</title>
<ellipse fill="none" stroke="#000000" cx="2210.4152" cy="-234" rx="114.5967" ry="18"/>
<text text-anchor="middle" x="2210.4152" y="-229.8" font-family="Times,serif" font-size="14.00" fill="#000000">collector&#45;647w5 (10.4.1.3)</text>
</g>
<!-- 10.4.1.3&#45;&gt;10.4.1.147 -->
<g id="edge12" class="edge">
<title>10.4.1.3&#45;&gt;10.4.1.147</title>
<path fill="none" stroke="#000000" d="M2119.6894,-222.9471C2019.5724,-210.7501 1857.7595,-191.0369 1745.3818,-177.3462"/>
<polygon fill="#000000" stroke="#000000" points="1745.6948,-173.8585 1735.3449,-176.1234 1744.8482,-180.8071 1745.6948,-173.8585"/>
</g>
<!-- 10.4.1.173 -->
<g id="node14" class="node">
<title>10.4.1.173</title>
<ellipse fill="none" stroke="#000000" cx="2013.4152" cy="-162" rx="189.2077" ry="18"/>
<text text-anchor="middle" x="2013.4152" y="-157.8" font-family="Times,serif" font-size="14.00" fill="#000000">otel&#45;collector&#45;68b9d4cb78&#45;5qkr6 (10.4.1.173)</text>
</g>
<!-- 10.4.1.3&#45;&gt;10.4.1.173 -->
<g id="edge13" class="edge">
<title>10.4.1.3&#45;&gt;10.4.1.173</title>
<path fill="none" stroke="#000000" d="M2164.7243,-217.3008C2136.7244,-207.0673 2100.6415,-193.8797 2070.7352,-182.9495"/>
<polygon fill="#000000" stroke="#000000" points="2071.8544,-179.6321 2061.2605,-179.4866 2069.4514,-186.2068 2071.8544,-179.6321"/>
</g>
<!-- 10.4.1.145 -->
<g id="node15" class="node">
<title>10.4.1.145</title>
<ellipse fill="none" stroke="#000000" cx="2407.4152" cy="-162" rx="186.918" ry="18"/>
<text text-anchor="middle" x="2407.4152" y="-157.8" font-family="Times,serif" font-size="14.00" fill="#000000">otel&#45;collector&#45;6bff7d7789&#45;k6hsn (10.4.1.145)</text>
</g>
<!-- 10.4.1.3&#45;&gt;10.4.1.145 -->
<g id="edge14" class="edge">
<title>10.4.1.3&#45;&gt;10.4.1.145</title>
<path fill="none" stroke="#000000" d="M2256.1061,-217.3008C2284.106,-207.0673 2320.1889,-193.8797 2350.0951,-182.9495"/>
<polygon fill="#000000" stroke="#000000" points="2351.379,-186.2068 2359.5698,-179.4866 2348.976,-179.6321 2351.379,-186.2068"/>
</g>
<!-- 10.4.1.170 -->
<g id="node16" class="node">
<title>10.4.1.170</title>
<ellipse fill="none" stroke="#000000" cx="2794.4152" cy="-162" rx="182.2611" ry="18"/>
<text text-anchor="middle" x="2794.4152" y="-157.8" font-family="Times,serif" font-size="14.00" fill="#000000">otel&#45;collector&#45;7cd88f8d4&#45;4bqj6 (10.4.1.170)</text>
</g>
<!-- 10.4.1.3&#45;&gt;10.4.1.170 -->
<g id="edge15" class="edge">
<title>10.4.1.3&#45;&gt;10.4.1.170</title>
<path fill="none" stroke="#000000" d="M2300.7047,-222.8684C2399.7463,-210.6578 2559.3329,-190.9827 2670.1496,-177.3204"/>
<polygon fill="#000000" stroke="#000000" points="2670.8857,-180.7562 2680.3823,-176.0589 2670.0291,-173.8088 2670.8857,-180.7562"/>
</g>
<!-- 10.4.1.173&#45;&gt;169.254.169.254 -->
<g id="edge16" class="edge">
<title>10.4.1.173&#45;&gt;169.254.169.254</title>
<path fill="none" stroke="#000000" d="M1974.359,-144.2022C1952.9142,-134.4299 1926.1405,-122.2293 1903.4277,-111.8791"/>
<polygon fill="#000000" stroke="#000000" points="1904.8467,-108.6795 1894.2956,-107.7177 1901.9439,-115.0493 1904.8467,-108.6795"/>
</g>
</g>
</svg>
